<svg width="54" height="54" viewBox="0 0 54 54" fill="none" xmlns="http://www.w3.org/2000/svg">
<rect width="54" height="54" fill="#9B7BFF"/>
<path d="M42 26.0635C42.002 29.5611 40.6954 32.9316 38.3396 35.5064C35.9838 38.0811 32.7508 39.6719 29.2822 39.9631H29.2817C28.8983 39.9954 28.5108 40.0116 28.1191 40.0116C26.0612 40.0134 24.0287 39.5547 22.1692 38.6687C20.3097 37.7827 18.67 36.4916 17.3691 34.8893C16.8965 36.9619 17.199 39.1369 18.2188 41C16.6566 39.9014 15.5019 38.3126 14.936 36.483C14.3701 34.6534 14.425 32.6867 15.0922 30.8919V30.8914C13.9844 27.86 13.9529 24.537 15.0032 21.4849H11.6026C11.4428 21.4849 11.2895 21.4211 11.1765 21.3075C11.0635 21.194 11 21.04 11 20.8794V16.1837C11.0119 16.0825 11.049 15.9858 11.108 15.9028C11.1669 15.8197 11.2456 15.7529 11.337 15.7086C11.3456 15.7038 11.355 15.7005 11.3635 15.6967C13.9379 14.5737 16.715 13.9962 19.5215 14C20.0355 14 20.5452 14.0189 21.0504 14.0566C23.3519 14.2255 25.6081 14.7864 27.7225 15.7152C27.7239 15.7157 27.7253 15.7164 27.7267 15.7171C27.7513 15.7276 27.7755 15.7385 27.8001 15.7499C27.801 15.75 27.8019 15.7502 27.8027 15.7506C27.8035 15.751 27.8042 15.7516 27.8048 15.7523C27.9001 15.8044 27.9797 15.8815 28.0351 15.9752C28.0905 16.069 28.1197 16.176 28.1196 16.2851V20.8799C28.1196 21.0405 28.0561 21.1945 27.9431 21.308C27.8301 21.4216 27.6768 21.4854 27.517 21.4854H24.078C23.6721 22.7152 23.5447 24.0206 23.705 25.3063C25.1435 25.401 26.535 25.8578 27.7517 26.6347C28.9684 27.4115 29.971 28.4834 30.6672 29.7518C28.9109 28.5201 26.7607 27.9905 24.6366 28.2663C25.3233 29.5674 26.3297 30.6704 27.5602 31.4705C28.7908 32.2705 30.2045 32.741 31.667 32.8373C31.853 32.8492 32.0406 32.8552 32.2298 32.8554C32.6002 32.8557 32.9702 32.8319 33.3375 32.784C33.3455 32.7831 33.3536 32.7821 33.3616 32.7807C34.9214 32.5737 36.37 31.8565 37.4836 30.7397C38.4151 29.8045 39.1207 28.6671 39.5459 27.4149C39.9712 26.1627 40.1048 24.8291 39.9366 23.5169V23.5164C39.8782 23.0567 39.7826 22.6025 39.6507 22.1584C39.0679 22.015 38.5141 21.7719 38.0133 21.4397C36.9327 20.7269 36.1494 19.6408 35.8117 18.387C36.5675 19.1784 37.5488 19.7148 38.6207 19.9224C38.9516 19.9869 39.288 20.0193 39.6251 20.0189C39.663 20.0189 39.7009 20.0185 39.7378 20.018C39.7406 20.0227 39.743 20.0265 39.7454 20.0313C39.7493 20.027 39.753 20.0224 39.7563 20.0175C39.9414 19.7863 40.1066 19.5397 40.25 19.2802C40.7924 18.2989 41.0123 17.1703 40.8781 16.0558C41.6001 16.9868 41.9911 18.1338 41.9891 19.314C41.9891 19.363 41.9886 19.412 41.9867 19.4605C41.9655 20.2941 41.7483 21.1109 41.3529 21.844C41.3988 21.9896 41.4424 22.1358 41.4836 22.2826C41.8273 23.5132 42.0011 24.7854 42 26.0635Z" fill="white"/>
</svg>
