<svg width="139" height="17" viewBox="0 0 139 17" fill="none" xmlns="http://www.w3.org/2000/svg">
<path d="M19 7.59556C19.0012 9.79774 18.2004 11.9199 16.7565 13.541C15.3126 15.1622 13.3311 16.1638 11.2052 16.3471H11.2049C10.9699 16.3675 10.7324 16.3777 10.4924 16.3777C9.23105 16.3788 7.98532 16.09 6.84564 15.5321C5.70597 14.9743 4.70097 14.1614 3.90363 13.1525C3.61401 14.4575 3.79936 15.8269 4.42441 17C3.46697 16.3083 2.75925 15.3079 2.4124 14.1559C2.06555 13.004 2.09922 11.7657 2.50813 10.6356V10.6353C1.82913 8.72664 1.80986 6.63439 2.45359 4.71271H0.369329C0.271379 4.71271 0.177443 4.67254 0.108182 4.60104C0.0389215 4.52955 7.6935e-06 4.43258 0 4.33147L0 1.37495C0.00730512 1.31118 0.0300608 1.25034 0.066165 1.19805C0.102269 1.14576 0.150557 1.1037 0.206569 1.07576C0.211791 1.07277 0.217594 1.07067 0.222816 1.06828C1.80065 0.361234 3.50275 -0.00242364 5.22283 1.21557e-05C5.53791 1.21557e-05 5.85027 0.0118917 6.15993 0.0356509C7.57052 0.14201 8.95333 0.495142 10.2492 1.07996C10.2501 1.08028 10.251 1.08069 10.2519 1.08115C10.2669 1.08774 10.2817 1.09463 10.2968 1.10182C10.2974 1.10185 10.2979 1.102 10.2984 1.10225C10.2989 1.10251 10.2994 1.10287 10.2997 1.10332C10.3581 1.13614 10.4069 1.18462 10.4409 1.24365C10.4748 1.30269 10.4927 1.37008 10.4927 1.43874V4.33177C10.4927 4.43288 10.4537 4.52985 10.3845 4.60134C10.3152 4.67284 10.2213 4.71301 10.1233 4.71301H8.01557C7.76677 5.48736 7.68867 6.30929 7.78695 7.11878C8.66857 7.17842 9.52148 7.46604 10.2672 7.95516C11.0129 8.44429 11.6274 9.1192 12.0541 9.91777C10.9776 9.14227 9.6598 8.8088 8.35792 8.98248C8.77879 9.80169 9.39564 10.4962 10.1498 10.9999C10.904 11.5037 11.7705 11.7999 12.6669 11.8605C12.7809 11.868 12.8959 11.8718 13.0118 11.8719C13.2388 11.8721 13.4656 11.8571 13.6907 11.827C13.6956 11.8264 13.7006 11.8258 13.7055 11.8249C14.6615 11.6946 15.5494 11.243 16.2319 10.5398C16.8028 9.951 17.2352 9.23483 17.4959 8.44641C17.7565 7.65799 17.8384 6.81835 17.7353 5.99212V5.99182C17.6995 5.70237 17.6409 5.41641 17.5601 5.13679C17.2029 5.04649 16.8635 4.89341 16.5566 4.68426C15.8942 4.23543 15.4142 3.55163 15.2072 2.76217C15.6704 3.26047 16.2719 3.59823 16.9288 3.7289C17.1316 3.76955 17.3378 3.78991 17.5444 3.7897C17.5676 3.7897 17.5909 3.7894 17.6135 3.7891C17.6152 3.7921 17.6167 3.79449 17.6181 3.79749C17.6205 3.79476 17.6228 3.79185 17.6248 3.7888C17.7383 3.64323 17.8395 3.48793 17.9274 3.3246C18.2599 2.70668 18.3946 1.9961 18.3124 1.29439C18.7549 1.88057 18.9946 2.60274 18.9933 3.34586C18.9933 3.37671 18.993 3.40756 18.9919 3.4381C18.9788 3.96297 18.8457 4.47721 18.6034 4.93883C18.6315 5.03047 18.6582 5.12251 18.6835 5.21495C18.8942 5.98976 19.0007 6.7908 19 7.59556Z" fill="#9B7BFF"/>
<path d="M31.2435 7.14418C31.1871 6.93538 31.1043 6.75143 30.9949 6.59234C30.8855 6.42993 30.7513 6.29239 30.5922 6.1797C30.4331 6.06701 30.2508 5.98249 30.0453 5.92614C29.8398 5.86649 29.6144 5.83666 29.3692 5.83666C28.8753 5.83666 28.4478 5.95597 28.0865 6.19461C27.7285 6.43325 27.4518 6.78126 27.2562 7.23864C27.0607 7.69272 26.9629 8.24456 26.9629 8.89418C26.9629 9.54712 27.0574 10.1039 27.2463 10.5646C27.4352 11.0253 27.7087 11.3767 28.0666 11.6186C28.4246 11.8606 28.8588 11.9815 29.3692 11.9815C29.8199 11.9815 30.2011 11.9086 30.5126 11.7628C30.8275 11.6136 31.0661 11.4032 31.2285 11.1314C31.391 10.8596 31.4722 10.5398 31.4722 10.1719L31.9295 10.2266H29.4537V8.43183H33.8436V9.77913C33.8436 10.6906 33.6497 11.4711 33.2619 12.1207C32.8775 12.7704 32.3472 13.2692 31.671 13.6172C30.9982 13.9652 30.2243 14.1392 29.3493 14.1392C28.3782 14.1392 27.5247 13.9287 26.7889 13.5078C26.0531 13.0869 25.4797 12.487 25.0687 11.7081C24.6578 10.9259 24.4523 9.99788 24.4523 8.92401C24.4523 8.08879 24.5766 7.34802 24.8251 6.70171C25.0737 6.05209 25.4201 5.5019 25.8642 5.05114C26.3116 4.60039 26.8287 4.259 27.4153 4.027C28.0053 3.79499 28.64 3.67899 29.3195 3.67899C29.9094 3.67899 30.458 3.7635 30.9651 3.93254C31.4755 4.10157 31.9262 4.34021 32.3173 4.64845C32.7117 4.95668 33.0316 5.32293 33.2768 5.74717C33.5221 6.17141 33.6746 6.63708 33.7342 7.14418H31.2435Z" fill="#9B7BFF"/>
<path d="M35.2941 14V3.81819H42.3935V5.81677H37.755V7.90484H42.0306V9.90839H37.755V12.0014H42.3935V14H35.2941Z" fill="#9B7BFF"/>
<path d="M46.2465 3.81819L48.5235 11.2756H48.608L50.885 3.81819H53.6392L50.2039 14H46.9276L43.4922 3.81819H46.2465Z" fill="#9B7BFF"/>
<path d="M63.744 8.9091C63.744 10.0294 63.5286 10.9789 63.0977 11.7578C62.6668 12.5367 62.0835 13.1283 61.3477 13.5327C60.6152 13.937 59.7932 14.1392 58.8818 14.1392C57.967 14.1392 57.1434 13.9354 56.4109 13.5277C55.6784 13.12 55.0967 12.5284 54.6659 11.7528C54.2383 10.974 54.0245 10.0261 54.0245 8.9091C54.0245 7.78883 54.2383 6.83926 54.6659 6.06038C55.0967 5.2815 55.6784 4.68988 56.4109 4.28552C57.1434 3.88116 57.967 3.67899 58.8818 3.67899C59.7932 3.67899 60.6152 3.88116 61.3477 4.28552C62.0835 4.68988 62.6668 5.2815 63.0977 6.06038C63.5286 6.83926 63.744 7.78883 63.744 8.9091ZM61.2284 8.9091C61.2284 8.24622 61.1339 7.68609 60.945 7.2287C60.7594 6.77132 60.4909 6.42496 60.1396 6.18964C59.7916 5.95432 59.3723 5.83666 58.8818 5.83666C58.3946 5.83666 57.9753 5.95432 57.624 6.18964C57.2726 6.42496 57.0025 6.77132 56.8136 7.2287C56.628 7.68609 56.5352 8.24622 56.5352 8.9091C56.5352 9.57198 56.628 10.1321 56.8136 10.5895C57.0025 11.0469 57.2726 11.3932 57.624 11.6286C57.9753 11.8639 58.3946 11.9815 58.8818 11.9815C59.3723 11.9815 59.7916 11.8639 60.1396 11.6286C60.4909 11.3932 60.7594 11.0469 60.945 10.5895C61.1339 10.1321 61.2284 9.57198 61.2284 8.9091Z" fill="#9B7BFF"/>
<path d="M65.1808 14V3.81819H67.6417V12.0014H71.8775V14H65.1808Z" fill="#9B7BFF"/>
<path d="M79.4368 7.14418C79.3805 6.93538 79.2976 6.75143 79.1882 6.59234C79.0789 6.42993 78.9446 6.29239 78.7855 6.1797C78.6265 6.06701 78.4442 5.98249 78.2387 5.92614C78.0332 5.86649 77.8078 5.83666 77.5625 5.83666C77.0687 5.83666 76.6411 5.95597 76.2799 6.19461C75.9219 6.43325 75.6452 6.78126 75.4496 7.23864C75.2541 7.69272 75.1563 8.24456 75.1563 8.89418C75.1563 9.54712 75.2507 10.1039 75.4397 10.5646C75.6286 11.0253 75.902 11.3767 76.26 11.6186C76.6179 11.8606 77.0521 11.9815 77.5625 11.9815C78.0133 11.9815 78.3944 11.9086 78.706 11.7628C79.0209 11.6136 79.2595 11.4032 79.4219 11.1314C79.5843 10.8596 79.6655 10.5398 79.6655 10.1719L80.1229 10.2266H77.647V8.43183H82.037V9.77913C82.037 10.6906 81.8431 11.4711 81.4553 12.1207C81.0708 12.7704 80.5405 13.2692 79.8644 13.6172C79.1916 13.9652 78.4176 14.1392 77.5426 14.1392C76.5715 14.1392 75.7181 13.9287 74.9823 13.5078C74.2465 13.0869 73.6731 12.487 73.2621 11.7081C72.8511 10.9259 72.6456 9.99788 72.6456 8.92401C72.6456 8.08879 72.7699 7.34802 73.0185 6.70171C73.2671 6.05209 73.6134 5.5019 74.0576 5.05114C74.505 4.60039 75.0221 4.259 75.6087 4.027C76.1987 3.79499 76.8334 3.67899 77.5128 3.67899C78.1028 3.67899 78.6513 3.7635 79.1584 3.93254C79.6688 4.10157 80.1196 4.34021 80.5107 4.64845C80.9051 4.95668 81.2249 5.32293 81.4702 5.74717C81.7155 6.17141 81.8679 6.63708 81.9276 7.14418H79.4368Z" fill="#9B7BFF"/>
<path d="M84.0691 3.81819H85.143L88.8369 12.6875H88.9263L92.6202 3.81819H93.6941V14H92.8191V5.78197H92.7396L89.3042 14H88.459L85.0236 5.78197H84.9441V14H84.0691V3.81819Z" fill="#9B7BFF"/>
<path d="M96.416 14H95.4416L99.1455 3.81819H100.14L103.844 14H102.869L99.6774 5.02629H99.6078L96.416 14ZM97.117 10.0973H102.168V10.9325H97.117V10.0973Z" fill="#9B7BFF"/>
<path d="M105.589 14V3.81819H108.875C109.597 3.81819 110.201 3.94911 110.685 4.21095C111.172 4.46947 111.538 4.82908 111.783 5.28978C112.032 5.74717 112.156 6.2725 112.156 6.86578C112.156 7.45905 112.032 7.98273 111.783 8.4368C111.538 8.89087 111.173 9.24551 110.689 9.50072C110.206 9.75593 109.606 9.88353 108.89 9.88353H106.091V9.03339H108.865C109.395 9.03339 109.836 8.94556 110.187 8.76989C110.542 8.59423 110.805 8.344 110.978 8.01918C111.153 7.69437 111.241 7.3099 111.241 6.86578C111.241 6.42165 111.153 6.03386 110.978 5.70242C110.802 5.36767 110.537 5.10915 110.182 4.92685C109.831 4.74456 109.387 4.65342 108.85 4.65342H106.518V14H105.589ZM110.078 9.40626L112.584 14H111.51L109.029 9.40626H110.078Z" fill="#9B7BFF"/>
<path d="M114.421 14V3.81819H115.35V9.30186H115.44L120.411 3.81819H121.634L117.284 8.52629L121.615 14H120.481L116.708 9.17259L115.35 10.6939V14H114.421Z" fill="#9B7BFF"/>
<path d="M123.389 14V3.81819H129.296V4.65342H124.319V8.48651H128.982V9.32174H124.319V13.1648H129.395V14H123.389Z" fill="#9B7BFF"/>
<path d="M131.085 4.65342V3.81819H138.468V4.65342H135.242V14H134.312V4.65342H131.085Z" fill="#9B7BFF"/>
</svg>
